<svg xmlns="http://www.w3.org/2000/svg" xmlns:xlink="http://www.w3.org/1999/xlink" width="200" zoomAndPan="magnify" viewBox="0 0 150 149.999998" height="200" preserveAspectRatio="xMidYMid meet" version="1.2"><g id="8df56b89b1"><path style=" stroke:none;fill-rule:nonzero;fill:#005edd;fill-opacity:1;" d="M 40.285156 48.339844 C 41.535156 46.945312 42.855469 45.554688 44.179688 44.269531 C 45.5 43.125 46.964844 41.980469 48.5 40.839844 C 51.894531 38.445312 53.035156 33.375 50.964844 29.304688 C 48.894531 25.375 44.570312 23.980469 41.179688 26.375 C 39.214844 27.769531 37.285156 29.304688 35.429688 30.945312 C 33.605469 32.625 31.820312 34.375 30.179688 36.269531 C 27.394531 39.445312 27.285156 44.769531 30.070312 48.054688 C 32.964844 51.480469 37.5 51.625 40.285156 48.339844 Z M 40.285156 48.339844 "/><path style=" stroke:none;fill-rule:nonzero;fill:#005edd;fill-opacity:1;" d="M 65.75 91.769531 L 88.179688 78.160156 C 90.570312 76.839844 90.570312 73.160156 88.179688 71.839844 L 65.75 58.230469 C 63.355469 56.589844 59.855469 58.554688 60 61.375 L 60 88.625 C 59.894531 91.445312 63.355469 93.410156 65.75 91.769531 Z M 65.75 91.769531 "/><path style=" stroke:none;fill-rule:nonzero;fill:#005edd;fill-opacity:1;" d="M 136.035156 57.945312 C 131.429688 41.625 120.785156 28.054688 105.964844 19.769531 C 91.179688 11.480469 74 9.410156 57.679688 14.054688 C 57 14.269531 56.355469 14.554688 55.75 14.910156 C 52.035156 17.195312 50.929688 22.089844 53.214844 25.804688 L 57.535156 32.660156 C 59.355469 35.480469 62.75 36.875 66 36.125 C 69.355469 35.339844 72.785156 34.980469 76.179688 35.125 C 96.894531 35.730469 113.855469 52.375 114.855469 73.054688 C 115.070312 77.519531 114.570312 81.945312 113.285156 86.230469 C 110.285156 96.480469 103.464844 104.910156 94.105469 110.019531 C 84.75 115.125 73.964844 116.269531 63.75 113.304688 C 42.644531 107.125 30.5 84.875 36.679688 63.769531 C 37.679688 60.410156 36.285156 56.730469 33.320312 54.839844 L 26.644531 50.625 C 26.105469 50.269531 25.535156 50.019531 24.894531 49.769531 C 20.75 48.375 16.285156 50.589844 14.894531 54.730469 C 12.714844 61.230469 11.570312 68.054688 11.570312 74.945312 C 11.570312 109.910156 40 138.375 74.964844 138.410156 C 109.929688 138.410156 138.355469 109.980469 138.355469 75.019531 C 138.394531 69.230469 137.605469 63.480469 136.035156 57.945312 Z M 136.035156 57.945312 "/></g></svg>