<?xml version="1.0" encoding="utf-8"?>
<!-- Generator: Adobe Adobe Illustrator 24.2.0, SVG Export Plug-In . SVG Version: 6.00 Build 0)  -->
<svg version="1.1" id="Layer_1" xmlns="http://www.w3.org/2000/svg" xmlns:xlink="http://www.w3.org/1999/xlink" x="0px" y="0px"
	 width="284.04px" height="86.27px" viewBox="0 0 284.04 86.27" style="enable-background:new 0 0 284.04 86.27;"
	 xml:space="preserve">
<style type="text/css">
	.st0{fill:#FFFFFF;}
	.st1{fill:#005EDD;}
	.st2{fill:url(#SVGID_1_);}
	.st3{fill:url(#SVGID_2_);}
	.st4{fill:url(#SVGID_3_);}
	.st5{fill:url(#SVGID_4_);}
	.st6{fill:url(#SVGID_5_);}
	.st7{fill:url(#SVGID_6_);}
	.st8{fill:url(#SVGID_7_);}
	.st9{fill:url(#SVGID_8_);}
	.st10{fill:url(#SVGID_9_);}
</style>
<linearGradient id="SVGID_1_" gradientUnits="userSpaceOnUse" x1="-104.147" y1="-85.1713" x2="485.0371" y2="221.9207">
	<stop  offset="0" style="stop-color:#005EDD"/>
	<stop  offset="1" style="stop-color:#008DDE"/>
</linearGradient>
<path class="st2" d="M0,80.27V6c0-3.31,2.69-6,6-6h272.04c3.31,0,6,2.69,6,6v74.27c0,3.31-2.69,6-6,6H6C2.69,86.27,0,83.58,0,80.27z
	"/>
<g>
	<path class="st0" d="M38.69,56.02c-1.5,0-2.71-1.21-2.71-2.71s1.21-2.71,2.71-2.71h28.49c2.71,0,5.43,5.43,4.07,5.43H38.69z
		 M76.67,56.02c-1.5,0-2.71-1.21-2.71-2.71s1.21-2.71,2.71-2.71h10.85c1.5,0,2.71,1.21,2.71,2.71s-1.21,2.71-2.71,2.71H76.67z
		 M64.82,19.4c0.75-1.3,2.41-1.75,3.7-1c1.3,0.75,1.75,2.41,1,3.7L50.79,54.65c-0.75,1.3-2.41,1.75-3.7,1c-1.3-0.75-1.75-2.41-1-3.7
		L64.82,19.4z M41.4,60.09c1.36-2.71,9.5-5.43,6.78-0.76c-0.48,0.83-1.96,3.34-4.43,7.54c-0.75,1.3-2.41,1.75-3.7,1
		c-1.3-0.75-1.75-2.41-1-3.7L41.4,60.09z M55.33,22.11c-0.75-1.3-0.3-2.96,1-3.7c1.3-0.75,2.96-0.3,3.7,1l4.73,8.22
		c0.75,1.3,0.3,2.96-1,3.7c-1.3,0.75-2.96,0.3-3.7-1L55.33,22.11z M65.82,41.1c-2.44-4.07,0-12.21,1.94-8.15L85.8,64.16
		c0.75,1.3,0.3,2.96-1,3.7c-1.3,0.75-2.96,0.3-3.7-1L65.82,41.1z"/>
</g>
<g>
	<path class="st0" d="M114.28,40.67l-7.34,20.18h2.8l1.63-4.51h8.85l1.63,4.51h2.8l-7.31-20.18H114.28z M112.13,54.18l3.67-10.25
		l3.67,10.25H112.13z"/>
	<path class="st0" d="M140.33,45.65c-1.16-0.68-2.44-1.02-3.86-1.02c-1.38,0-2.59,0.31-3.62,0.92c-1.04,0.61-1.82,1.37-2.34,2.29
		v-2.94h-2.65v23.53h2.65V57.91c0.54,0.91,1.33,1.67,2.37,2.29c1.04,0.61,2.24,0.92,3.6,0.92c1.42,0,2.7-0.35,3.86-1.05
		c1.15-0.7,2.06-1.68,2.72-2.94c0.66-1.26,0.99-2.7,0.99-4.31c0-1.63-0.33-3.06-0.99-4.29C142.39,47.29,141.48,46.33,140.33,45.65z
		 M140.6,56c-0.49,0.9-1.14,1.59-1.97,2.07c-0.83,0.48-1.73,0.71-2.72,0.71c-0.97,0-1.87-0.24-2.69-0.71
		c-0.83-0.48-1.48-1.16-1.98-2.07c-0.49-0.9-0.74-1.96-0.74-3.16c0-1.18,0.25-2.23,0.74-3.13c0.49-0.9,1.15-1.59,1.98-2.07
		c0.82-0.48,1.72-0.71,2.69-0.71c0.99,0,1.9,0.23,2.72,0.7c0.82,0.47,1.48,1.15,1.97,2.04c0.48,0.89,0.73,1.94,0.73,3.14
		C141.33,54.04,141.09,55.1,140.6,56z"/>
	<path class="st0" d="M160.01,45.65c-1.16-0.68-2.44-1.02-3.86-1.02c-1.38,0-2.59,0.31-3.62,0.92c-1.04,0.61-1.82,1.37-2.34,2.29
		v-2.94h-2.65v23.53h2.65V57.91c0.54,0.91,1.33,1.67,2.37,2.29c1.04,0.61,2.24,0.92,3.6,0.92c1.42,0,2.7-0.35,3.86-1.05
		c1.15-0.7,2.06-1.68,2.72-2.94c0.66-1.26,0.99-2.7,0.99-4.31c0-1.63-0.33-3.06-0.99-4.29C162.07,47.29,161.16,46.33,160.01,45.65z
		 M160.28,56c-0.49,0.9-1.14,1.59-1.97,2.07c-0.83,0.48-1.73,0.71-2.72,0.71c-0.97,0-1.87-0.24-2.69-0.71
		c-0.83-0.48-1.48-1.16-1.98-2.07c-0.49-0.9-0.74-1.96-0.74-3.16c0-1.18,0.25-2.23,0.74-3.13c0.49-0.9,1.15-1.59,1.98-2.07
		c0.82-0.48,1.72-0.71,2.69-0.71c0.99,0,1.9,0.23,2.72,0.7c0.82,0.47,1.48,1.15,1.97,2.04c0.48,0.89,0.73,1.94,0.73,3.14
		C161.01,54.04,160.77,55.1,160.28,56z"/>
	<path class="st0" d="M185.21,50.61c-0.82-0.36-1.89-0.72-3.23-1.09c-1.11-0.31-1.97-0.59-2.58-0.83c-0.61-0.24-1.13-0.6-1.54-1.06
		c-0.42-0.47-0.63-1.07-0.63-1.81c0-1.03,0.35-1.83,1.05-2.4c0.7-0.57,1.6-0.86,2.71-0.86c1.18,0,2.13,0.3,2.85,0.89
		c0.72,0.59,1.13,1.28,1.22,2.05h2.91c-0.16-1.57-0.84-2.83-2.05-3.79c-1.21-0.95-2.77-1.43-4.67-1.43c-1.32,0-2.49,0.23-3.51,0.7
		s-1.81,1.13-2.37,1.98c-0.56,0.85-0.84,1.83-0.84,2.94c0,1.26,0.29,2.27,0.86,3.01c0.57,0.75,1.26,1.3,2.07,1.65
		c0.81,0.35,1.88,0.7,3.22,1.05c1.09,0.29,1.95,0.56,2.59,0.82c0.64,0.25,1.17,0.62,1.6,1.11c0.43,0.49,0.64,1.12,0.64,1.89
		c0,0.99-0.36,1.8-1.09,2.43c-0.73,0.63-1.72,0.95-2.98,0.95c-1.32,0-2.32-0.32-3.01-0.98c-0.69-0.65-1.08-1.45-1.18-2.4h-2.82
		c0.02,1.11,0.33,2.08,0.93,2.93c0.6,0.84,1.43,1.5,2.49,1.98c1.06,0.48,2.26,0.71,3.6,0.71c1.4,0,2.61-0.27,3.64-0.82
		c1.03-0.54,1.81-1.25,2.33-2.13c0.52-0.87,0.79-1.81,0.79-2.8c0-1.28-0.29-2.3-0.87-3.04C186.72,51.53,186.02,50.97,185.21,50.61z"
		/>
	<path class="st0" d="M195.31,40.88h-2.65v4.02h-2.07v2.18h2.07v9.4c0,1.55,0.37,2.67,1.11,3.35c0.74,0.68,1.84,1.02,3.32,1.02h2.39
		v-2.24h-1.95c-0.82,0-1.39-0.16-1.72-0.48c-0.33-0.32-0.49-0.87-0.49-1.65v-9.4h4.16v-2.18h-4.16V40.88z"/>
	<path class="st0" d="M213.86,45.64c-1.22-0.67-2.59-1-4.11-1s-2.88,0.33-4.11,1c-1.22,0.67-2.19,1.63-2.9,2.88
		c-0.71,1.25-1.06,2.69-1.06,4.32c0,1.65,0.34,3.1,1.03,4.35c0.69,1.25,1.64,2.22,2.85,2.9c1.21,0.68,2.57,1.02,4.06,1.02
		c1.51,0,2.89-0.34,4.13-1.02c1.24-0.68,2.23-1.65,2.96-2.9c0.73-1.25,1.09-2.7,1.09-4.35c0-1.65-0.35-3.1-1.06-4.34
		C216.04,47.26,215.08,46.31,213.86,45.64z M214.34,56.1c-0.51,0.89-1.19,1.56-2.02,2.01c-0.83,0.45-1.73,0.67-2.68,0.67
		c-0.95,0-1.82-0.22-2.62-0.66c-0.8-0.44-1.43-1.1-1.91-1.99c-0.48-0.89-0.71-1.99-0.71-3.29c0-1.28,0.24-2.37,0.73-3.26
		c0.48-0.89,1.13-1.56,1.94-1.99c0.81-0.44,1.69-0.66,2.66-0.66c0.95,0,1.83,0.22,2.65,0.66c0.82,0.44,1.47,1.1,1.98,1.99
		c0.5,0.89,0.76,1.98,0.76,3.26S214.85,55.21,214.34,56.1z"/>
	<path class="st0" d="M223.96,47.48v-2.59h-2.65v15.96h2.65v-8.68c0-3.22,1.48-4.83,4.45-4.83h0.7V44.6c-1.24,0-2.3,0.25-3.16,0.76
		C225.09,45.86,224.43,46.57,223.96,47.48z"/>
	<path class="st0" d="M243.09,45.62c-1.16-0.66-2.5-0.99-4.02-0.99c-1.55,0-2.93,0.33-4.12,1c-1.19,0.67-2.12,1.63-2.78,2.87
		c-0.66,1.24-0.99,2.69-0.99,4.34c0,1.65,0.34,3.1,1.02,4.35c0.68,1.25,1.62,2.22,2.81,2.9c1.19,0.68,2.55,1.02,4.06,1.02
		c1.9,0,3.49-0.48,4.77-1.44c1.28-0.96,2.13-2.21,2.56-3.74h-2.85c-0.31,0.89-0.85,1.61-1.62,2.14c-0.77,0.53-1.72,0.8-2.87,0.8
		c-1.4,0-2.59-0.44-3.57-1.32c-0.98-0.88-1.52-2.11-1.62-3.68h12.75c0.06-0.56,0.09-1.1,0.09-1.6c0-1.46-0.32-2.76-0.95-3.92
		C245.15,47.19,244.25,46.28,243.09,45.62z M233.92,51.71c0.14-1.51,0.67-2.7,1.62-3.55c0.94-0.85,2.08-1.28,3.42-1.28
		c0.93,0,1.78,0.19,2.55,0.57c0.77,0.38,1.37,0.93,1.82,1.66c0.45,0.73,0.67,1.6,0.67,2.61H233.92z"/>
</g>
<g>
	<path class="st0" d="M119.4,16.89v12.19h-1.6v-9.09l-4.05,9.09h-1.13l-4.07-9.11v9.11h-1.6V16.89h1.73l4.51,10.08l4.51-10.08H119.4
		z"/>
	<path class="st0" d="M130.87,24.85h-7.72c0.06,0.95,0.38,1.69,0.98,2.23c0.59,0.53,1.31,0.8,2.16,0.8c0.69,0,1.27-0.16,1.73-0.48
		c0.46-0.32,0.79-0.75,0.98-1.29h1.73c-0.26,0.93-0.77,1.68-1.55,2.26c-0.77,0.58-1.74,0.87-2.89,0.87c-0.92,0-1.74-0.21-2.46-0.62
		c-0.72-0.41-1.29-1-1.7-1.75s-0.62-1.63-0.62-2.63c0-1,0.2-1.87,0.6-2.62c0.4-0.75,0.96-1.33,1.68-1.73
		c0.72-0.41,1.55-0.61,2.49-0.61c0.92,0,1.73,0.2,2.43,0.6s1.25,0.95,1.63,1.65c0.38,0.7,0.57,1.49,0.57,2.37
		C130.92,24.19,130.9,24.51,130.87,24.85z M128.86,21.97c-0.27-0.44-0.64-0.77-1.1-1c-0.46-0.23-0.98-0.34-1.54-0.34
		c-0.81,0-1.5,0.26-2.07,0.78c-0.57,0.52-0.9,1.23-0.98,2.15h6.1C129.27,22.94,129.13,22.41,128.86,21.97z"/>
	<path class="st0" d="M133.03,21.62c0.4-0.75,0.95-1.32,1.65-1.73s1.48-0.62,2.35-0.62c0.75,0,1.45,0.17,2.1,0.52
		c0.65,0.35,1.14,0.8,1.48,1.37v-5.11h1.62v13.04h-1.62v-1.81c-0.32,0.58-0.79,1.05-1.41,1.42s-1.35,0.55-2.18,0.55
		c-0.86,0-1.64-0.21-2.33-0.63s-1.25-1.02-1.65-1.78c-0.4-0.76-0.6-1.63-0.6-2.61C132.44,23.23,132.64,22.37,133.03,21.62z
		 M140.17,22.33c-0.29-0.54-0.69-0.95-1.19-1.24c-0.5-0.29-1.05-0.43-1.65-0.43s-1.15,0.14-1.64,0.42
		c-0.49,0.28-0.89,0.69-1.18,1.23c-0.29,0.54-0.44,1.17-0.44,1.9c0,0.74,0.15,1.38,0.44,1.93c0.29,0.55,0.69,0.96,1.18,1.25
		c0.49,0.29,1.04,0.43,1.64,0.43s1.15-0.14,1.65-0.43c0.5-0.29,0.9-0.7,1.19-1.25c0.29-0.55,0.44-1.18,0.44-1.91
		C140.61,23.51,140.46,22.87,140.17,22.33z"/>
	<path class="st0" d="M147.75,19.71c0.52-0.3,1.16-0.46,1.91-0.46v1.66h-0.42c-1.8,0-2.7,0.97-2.7,2.92v5.25h-1.6v-9.65h1.6v1.57
		C146.83,20.44,147.23,20.01,147.75,19.71z"/>
	<path class="st0" d="M151.51,21.62c0.4-0.75,0.95-1.32,1.65-1.73s1.48-0.62,2.33-0.62c0.85,0,1.58,0.18,2.2,0.55
		c0.62,0.36,1.09,0.82,1.39,1.38v-1.76h1.62v9.65h-1.62v-1.8c-0.32,0.56-0.79,1.03-1.42,1.4s-1.36,0.55-2.19,0.55
		c-0.86,0-1.63-0.21-2.33-0.63s-1.24-1.02-1.64-1.78c-0.4-0.76-0.6-1.63-0.6-2.61C150.91,23.23,151.11,22.37,151.51,21.62z
		 M158.65,22.33c-0.29-0.54-0.69-0.95-1.19-1.24c-0.5-0.29-1.05-0.43-1.65-0.43s-1.15,0.14-1.64,0.42
		c-0.49,0.28-0.89,0.69-1.18,1.23c-0.29,0.54-0.44,1.17-0.44,1.9c0,0.74,0.15,1.38,0.44,1.93c0.29,0.55,0.69,0.96,1.18,1.25
		c0.49,0.29,1.04,0.43,1.64,0.43s1.15-0.14,1.65-0.43c0.5-0.29,0.9-0.7,1.19-1.25c0.29-0.55,0.44-1.18,0.44-1.91
		C159.09,23.51,158.94,22.87,158.65,22.33z"/>
	<path class="st0" d="M164.85,28.86c-0.59-0.25-1.05-0.61-1.39-1.06c-0.34-0.45-0.53-0.97-0.56-1.56h1.66
		c0.05,0.48,0.27,0.88,0.68,1.18c0.41,0.31,0.94,0.46,1.59,0.46c0.61,0,1.09-0.13,1.44-0.41c0.35-0.27,0.53-0.61,0.53-1.02
		c0-0.42-0.19-0.74-0.56-0.94c-0.38-0.21-0.96-0.41-1.74-0.61c-0.72-0.19-1.3-0.38-1.75-0.57c-0.45-0.19-0.84-0.48-1.16-0.86
		c-0.32-0.38-0.48-0.88-0.48-1.51c0-0.49,0.15-0.95,0.44-1.36s0.71-0.74,1.25-0.98c0.54-0.24,1.16-0.36,1.85-0.36
		c1.07,0,1.93,0.27,2.59,0.81c0.66,0.54,1.01,1.28,1.06,2.22h-1.6c-0.04-0.5-0.24-0.91-0.61-1.22c-0.37-0.3-0.87-0.46-1.49-0.46
		c-0.58,0-1.03,0.12-1.37,0.37c-0.34,0.25-0.51,0.57-0.51,0.97c0,0.32,0.1,0.58,0.31,0.78c0.21,0.21,0.46,0.37,0.77,0.49
		s0.74,0.26,1.29,0.41c0.69,0.19,1.26,0.37,1.69,0.55c0.43,0.18,0.81,0.46,1.12,0.82c0.31,0.36,0.47,0.84,0.48,1.43
		c0,0.53-0.15,1-0.44,1.43c-0.29,0.42-0.71,0.75-1.24,1c-0.53,0.24-1.15,0.36-1.84,0.36C166.1,29.24,165.44,29.11,164.85,28.86z"/>
	<path class="st0" d="M174.57,20.75v5.69c0,0.47,0.1,0.8,0.3,1c0.2,0.19,0.55,0.29,1.04,0.29h1.18v1.36h-1.44
		c-0.89,0-1.56-0.21-2.01-0.62c-0.45-0.41-0.67-1.09-0.67-2.03v-5.69h-1.25v-1.32h1.25V17h1.6v2.43h2.52v1.32H174.57z"/>
	<path class="st0" d="M179.08,17.54c-0.21-0.21-0.32-0.47-0.32-0.77s0.11-0.56,0.32-0.78c0.21-0.21,0.47-0.32,0.78-0.32
		c0.29,0,0.54,0.11,0.75,0.32c0.21,0.21,0.31,0.47,0.31,0.78s-0.1,0.56-0.31,0.77c-0.21,0.21-0.46,0.32-0.75,0.32
		C179.55,17.86,179.29,17.75,179.08,17.54z M180.63,19.43v9.65h-1.6v-9.65H180.63z"/>
	<path class="st0" d="M189.49,28.86c-0.59-0.25-1.05-0.61-1.39-1.06c-0.34-0.45-0.53-0.97-0.56-1.56h1.66
		c0.05,0.48,0.27,0.88,0.68,1.18c0.41,0.31,0.94,0.46,1.59,0.46c0.61,0,1.09-0.13,1.44-0.41c0.35-0.27,0.53-0.61,0.53-1.02
		c0-0.42-0.19-0.74-0.56-0.94c-0.38-0.21-0.96-0.41-1.74-0.61c-0.72-0.19-1.3-0.38-1.75-0.57c-0.45-0.19-0.84-0.48-1.16-0.86
		c-0.32-0.38-0.48-0.88-0.48-1.51c0-0.49,0.15-0.95,0.44-1.36s0.71-0.74,1.25-0.98c0.54-0.24,1.16-0.36,1.85-0.36
		c1.07,0,1.93,0.27,2.59,0.81c0.66,0.54,1.01,1.28,1.06,2.22h-1.6c-0.04-0.5-0.24-0.91-0.61-1.22c-0.37-0.3-0.87-0.46-1.49-0.46
		c-0.58,0-1.03,0.12-1.37,0.37c-0.34,0.25-0.51,0.57-0.51,0.97c0,0.32,0.1,0.58,0.31,0.78c0.21,0.21,0.46,0.37,0.77,0.49
		s0.74,0.26,1.29,0.41c0.69,0.19,1.26,0.37,1.69,0.55c0.43,0.18,0.81,0.46,1.12,0.82c0.31,0.36,0.47,0.84,0.48,1.43
		c0,0.53-0.15,1-0.44,1.43c-0.29,0.42-0.71,0.75-1.24,1c-0.53,0.24-1.15,0.36-1.84,0.36C190.74,29.24,190.08,29.11,189.49,28.86z"/>
	<path class="st0" d="M205.82,19.43v9.65h-1.6v-1.43c-0.31,0.49-0.73,0.88-1.28,1.15c-0.55,0.28-1.15,0.41-1.81,0.41
		c-0.75,0-1.43-0.16-2.03-0.47c-0.6-0.31-1.07-0.78-1.42-1.4c-0.35-0.62-0.52-1.38-0.52-2.27v-5.65h1.59v5.44
		c0,0.95,0.24,1.68,0.72,2.19c0.48,0.51,1.14,0.77,1.97,0.77c0.86,0,1.53-0.26,2.03-0.79c0.49-0.53,0.74-1.3,0.74-2.31v-5.3H205.82z
		"/>
	<path class="st0" d="M211.35,19.71c0.52-0.3,1.16-0.46,1.91-0.46v1.66h-0.42c-1.8,0-2.7,0.97-2.7,2.92v5.25h-1.6v-9.65h1.6v1.57
		C210.42,20.44,210.82,20.01,211.35,19.71z"/>
</g>
</svg>
