<?xml version="1.0" encoding="utf-8"?>
<!-- Generator: Adobe Adobe Illustrator 24.2.0, SVG Export Plug-In . SVG Version: 6.00 Build 0)  -->
<svg version="1.1" id="Layer_1" xmlns="http://www.w3.org/2000/svg" xmlns:xlink="http://www.w3.org/1999/xlink" x="0px" y="0px"
	 width="284.04px" height="86.27px" viewBox="0 0 284.04 86.27" style="enable-background:new 0 0 284.04 86.27;"
	 xml:space="preserve">
<style type="text/css">
	.st0{fill:#FFFFFF;}
	.st1{fill:#005EDD;}
	.st2{fill:url(#SVGID_1_);}
	.st3{fill:url(#SVGID_2_);}
	.st4{fill:url(#SVGID_3_);}
	.st5{fill:url(#SVGID_4_);}
	.st6{fill:url(#SVGID_5_);}
	.st7{fill:url(#SVGID_6_);}
	.st8{fill:url(#SVGID_7_);}
	.st9{fill:url(#SVGID_8_);}
	.st10{fill:url(#SVGID_9_);}
</style>
<linearGradient id="SVGID_1_" gradientUnits="userSpaceOnUse" x1="-104.147" y1="-85.1713" x2="485.0371" y2="221.9207">
	<stop  offset="0" style="stop-color:#005EDD"/>
	<stop  offset="1" style="stop-color:#008DDE"/>
</linearGradient>
<path class="st2" d="M0,80.27V6c0-3.31,2.69-6,6-6h272.04c3.31,0,6,2.69,6,6v74.27c0,3.31-2.69,6-6,6H6C2.69,86.27,0,83.58,0,80.27z
	"/>
<g>
	<g>
		<path class="st0" d="M22.31,20.2v45.86c0,0.28,0.23,0.5,0.51,0.5c0.13,0,0.26-0.05,0.35-0.15l23.88-23.29L23.17,19.84
			c-0.2-0.2-0.52-0.19-0.71,0.01C22.36,19.94,22.31,20.07,22.31,20.2z"/>
		<path class="st0" d="M57.06,33.57l-29.94-16.5l-0.02-0.01c-0.52-0.28-1.01,0.42-0.58,0.82l23.47,22.44L57.06,33.57z"/>
		<path class="st0" d="M26.52,68.39c-0.42,0.41,0.07,1.1,0.58,0.82l0.02-0.01l29.94-16.5l-7.07-6.76L26.52,68.39z"/>
		<path class="st0" d="M69.15,40.22l-8.36-4.61l-7.86,7.52l7.86,7.52l8.36-4.6C71.42,44.8,71.42,41.47,69.15,40.22z"/>
	</g>
</g>
<g>
	<path class="st0" d="M99.94,51.91h8.09c-0.21,2.02-0.96,3.62-2.24,4.8c-1.28,1.18-2.91,1.78-4.89,1.78c-1.42,0-2.69-0.32-3.83-0.98
		c-1.14-0.65-2.03-1.58-2.68-2.78c-0.65-1.2-0.98-2.6-0.98-4.19c0-1.59,0.32-2.99,0.98-4.21c0.65-1.21,1.54-2.14,2.68-2.8
		c1.14-0.65,2.41-0.98,3.83-0.98c1.42,0,2.66,0.33,3.73,0.98c1.07,0.65,1.88,1.57,2.45,2.75h3.17c-0.76-1.94-1.97-3.45-3.62-4.51
		c-1.66-1.07-3.57-1.6-5.72-1.6c-1.88,0-3.6,0.44-5.15,1.32c-1.55,0.88-2.78,2.12-3.68,3.7c-0.9,1.58-1.35,3.36-1.35,5.34
		s0.45,3.76,1.35,5.33c0.9,1.57,2.13,2.8,3.68,3.68c1.55,0.88,3.27,1.32,5.15,1.32c1.79,0,3.41-0.4,4.86-1.21
		c1.46-0.81,2.63-1.9,3.52-3.29c0.89-1.39,1.42-2.92,1.57-4.59v-2.04H99.94V51.91z"/>
	<path class="st0" d="M125.53,45.49c-1.22-0.67-2.59-1-4.11-1c-1.51,0-2.88,0.33-4.11,1c-1.22,0.67-2.19,1.63-2.9,2.88
		c-0.71,1.25-1.06,2.69-1.06,4.32c0,1.65,0.34,3.1,1.03,4.35c0.69,1.25,1.64,2.22,2.85,2.9c1.21,0.68,2.57,1.02,4.06,1.02
		c1.51,0,2.89-0.34,4.13-1.02c1.24-0.68,2.23-1.65,2.96-2.9c0.73-1.25,1.09-2.7,1.09-4.35c0-1.65-0.35-3.1-1.06-4.34
		C127.72,47.12,126.76,46.16,125.53,45.49z M126.01,55.96c-0.51,0.89-1.19,1.56-2.02,2.01c-0.83,0.45-1.73,0.67-2.68,0.67
		c-0.95,0-1.82-0.22-2.62-0.66c-0.8-0.44-1.43-1.1-1.91-1.99c-0.48-0.89-0.71-1.99-0.71-3.29c0-1.28,0.24-2.37,0.73-3.26
		c0.48-0.89,1.13-1.56,1.94-1.99c0.81-0.44,1.69-0.66,2.66-0.66c0.95,0,1.83,0.22,2.65,0.66c0.82,0.44,1.47,1.1,1.98,1.99
		c0.5,0.89,0.76,1.98,0.76,3.26S126.53,55.06,126.01,55.96z"/>
	<path class="st0" d="M144.17,45.49c-1.22-0.67-2.59-1-4.11-1c-1.51,0-2.88,0.33-4.11,1c-1.22,0.67-2.19,1.63-2.9,2.88
		c-0.71,1.25-1.06,2.69-1.06,4.32c0,1.65,0.34,3.1,1.03,4.35c0.69,1.25,1.64,2.22,2.85,2.9c1.21,0.68,2.57,1.02,4.06,1.02
		c1.51,0,2.89-0.34,4.13-1.02c1.24-0.68,2.23-1.65,2.96-2.9c0.73-1.25,1.09-2.7,1.09-4.35c0-1.65-0.35-3.1-1.06-4.34
		C146.36,47.12,145.39,46.16,144.17,45.49z M144.65,55.96c-0.51,0.89-1.19,1.56-2.02,2.01c-0.83,0.45-1.73,0.67-2.68,0.67
		c-0.95,0-1.82-0.22-2.62-0.66c-0.8-0.44-1.43-1.1-1.91-1.99c-0.48-0.89-0.71-1.99-0.71-3.29c0-1.28,0.24-2.37,0.73-3.26
		c0.48-0.89,1.13-1.56,1.94-1.99c0.81-0.44,1.69-0.66,2.66-0.66c0.95,0,1.83,0.22,2.65,0.66c0.82,0.44,1.47,1.1,1.98,1.99
		c0.5,0.89,0.76,1.98,0.76,3.26S145.16,55.06,144.65,55.96z"/>
	<path class="st0" d="M164.14,47.66c-0.5-0.91-1.28-1.67-2.31-2.27c-1.04-0.6-2.25-0.9-3.62-0.9c-1.42,0-2.7,0.34-3.86,1.02
		c-1.16,0.68-2.06,1.64-2.72,2.87c-0.66,1.23-0.99,2.66-0.99,4.29c0,1.61,0.33,3.05,0.99,4.31c0.66,1.26,1.57,2.24,2.72,2.94
		c1.15,0.7,2.44,1.05,3.86,1.05c1.38,0,2.58-0.31,3.61-0.93c1.03-0.62,1.81-1.4,2.33-2.33v3.35c0,1.65-0.46,2.93-1.38,3.84
		c-0.92,0.91-2.11,1.37-3.57,1.37c-1.28,0-2.38-0.3-3.29-0.89c-0.91-0.59-1.51-1.37-1.81-2.34h-2.62c0.25,1.71,1.08,3.06,2.47,4.05
		c1.4,0.99,3.14,1.48,5.24,1.48c1.53,0,2.88-0.32,4.03-0.96c1.15-0.64,2.04-1.53,2.66-2.66c0.62-1.14,0.93-2.43,0.93-3.89v-16.3
		h-2.68V47.66z M163.41,55.86c-0.49,0.9-1.14,1.59-1.97,2.07c-0.83,0.48-1.73,0.71-2.72,0.71c-0.99,0-1.89-0.24-2.71-0.71
		c-0.82-0.48-1.47-1.16-1.95-2.07c-0.49-0.9-0.73-1.97-0.73-3.19c0-1.2,0.24-2.25,0.73-3.14c0.48-0.89,1.14-1.57,1.95-2.04
		c0.82-0.47,1.72-0.7,2.71-0.7c0.99,0,1.9,0.24,2.72,0.71c0.82,0.48,1.48,1.16,1.97,2.05c0.48,0.89,0.73,1.94,0.73,3.14
		C164.14,53.9,163.9,54.95,163.41,55.86z"/>
	<rect x="171.3" y="39.16" class="st0" width="2.65" height="21.55"/>
	<path class="st0" d="M189.38,45.48c-1.16-0.66-2.5-0.99-4.02-0.99c-1.55,0-2.93,0.33-4.12,1c-1.19,0.67-2.12,1.63-2.78,2.87
		c-0.66,1.24-0.99,2.69-0.99,4.34c0,1.65,0.34,3.1,1.02,4.35c0.68,1.25,1.62,2.22,2.81,2.9c1.19,0.68,2.55,1.02,4.06,1.02
		c1.9,0,3.49-0.48,4.77-1.44c1.28-0.96,2.13-2.21,2.56-3.74h-2.85c-0.31,0.89-0.85,1.61-1.62,2.14c-0.77,0.53-1.72,0.8-2.87,0.8
		c-1.4,0-2.59-0.44-3.57-1.32c-0.98-0.88-1.52-2.11-1.62-3.68h12.75c0.06-0.56,0.09-1.1,0.09-1.6c0-1.46-0.32-2.76-0.95-3.92
		C191.45,47.04,190.55,46.14,189.38,45.48z M180.21,51.56c0.14-1.51,0.67-2.7,1.62-3.55c0.94-0.85,2.08-1.28,3.42-1.28
		c0.93,0,1.78,0.19,2.55,0.57c0.77,0.38,1.37,0.93,1.82,1.66c0.45,0.73,0.67,1.6,0.67,2.61H180.21z"/>
	<path class="st0" d="M216.07,42.07c-1.19-1.11-2.94-1.66-5.23-1.66h-6.55V60.7h2.65v-8.47h3.9c2.37,0,4.13-0.56,5.28-1.67
		c1.15-1.12,1.73-2.52,1.73-4.21C217.86,44.6,217.26,43.18,216.07,42.07z M214.1,49.09c-0.7,0.64-1.79,0.96-3.26,0.96h-3.9v-7.45
		h3.9c2.87,0,4.31,1.25,4.31,3.76C215.15,47.53,214.8,48.45,214.1,49.09z"/>
	<rect x="221.15" y="39.16" class="st0" width="2.65" height="21.55"/>
	<path class="st0" d="M240.83,47.66c-0.5-0.91-1.27-1.67-2.3-2.27c-1.03-0.6-2.24-0.9-3.64-0.9c-1.42,0-2.7,0.34-3.86,1.02
		c-1.16,0.68-2.06,1.64-2.72,2.87c-0.66,1.23-0.99,2.66-0.99,4.29c0,1.61,0.33,3.05,0.99,4.31c0.66,1.26,1.56,2.24,2.71,2.94
		c1.15,0.7,2.43,1.05,3.84,1.05c1.38,0,2.59-0.31,3.62-0.92c1.04-0.61,1.82-1.38,2.34-2.31v2.97h2.68V44.75h-2.68V47.66z
		 M240.1,55.86c-0.49,0.9-1.14,1.59-1.97,2.07c-0.83,0.48-1.73,0.71-2.72,0.71c-0.99,0-1.89-0.24-2.71-0.71
		c-0.82-0.48-1.47-1.16-1.95-2.07c-0.49-0.9-0.73-1.97-0.73-3.19c0-1.2,0.24-2.25,0.73-3.14c0.48-0.89,1.14-1.57,1.95-2.04
		c0.82-0.47,1.72-0.7,2.71-0.7c0.99,0,1.9,0.24,2.72,0.71c0.82,0.48,1.48,1.16,1.97,2.05c0.48,0.89,0.73,1.94,0.73,3.14
		C240.83,53.9,240.59,54.95,240.1,55.86z"/>
	<polygon class="st0" points="259,44.75 254.05,57.67 249.04,44.75 246.1,44.75 252.53,60.53 249.39,68.21 252.13,68.21 
		261.74,44.75 	"/>
</g>
<g>
	<path class="st0" d="M103.17,16.89v12.19h-1.6v-9.09l-4.05,9.09h-1.13l-4.07-9.11v9.11h-1.6V16.89h1.73l4.51,10.08l4.51-10.08
		H103.17z"/>
	<path class="st0" d="M114.64,24.85h-7.72c0.06,0.95,0.38,1.69,0.98,2.23c0.59,0.53,1.31,0.8,2.16,0.8c0.69,0,1.27-0.16,1.73-0.48
		c0.46-0.32,0.79-0.75,0.98-1.29h1.73c-0.26,0.93-0.77,1.68-1.55,2.26c-0.77,0.58-1.74,0.87-2.89,0.87c-0.92,0-1.74-0.21-2.46-0.62
		c-0.72-0.41-1.29-1-1.7-1.75s-0.62-1.63-0.62-2.63c0-1,0.2-1.87,0.6-2.62c0.4-0.75,0.96-1.33,1.68-1.73
		c0.72-0.41,1.55-0.61,2.49-0.61c0.92,0,1.73,0.2,2.43,0.6s1.25,0.95,1.63,1.65c0.38,0.7,0.57,1.49,0.57,2.37
		C114.69,24.19,114.67,24.51,114.64,24.85z M112.63,21.97c-0.27-0.44-0.64-0.77-1.1-1c-0.46-0.23-0.98-0.34-1.54-0.34
		c-0.81,0-1.5,0.26-2.07,0.78c-0.57,0.52-0.9,1.23-0.98,2.15h6.1C113.03,22.94,112.9,22.41,112.63,21.97z"/>
	<path class="st0" d="M116.8,21.62c0.4-0.75,0.95-1.32,1.65-1.73s1.48-0.62,2.35-0.62c0.75,0,1.45,0.17,2.1,0.52
		c0.65,0.35,1.14,0.8,1.48,1.37v-5.11H126v13.04h-1.62v-1.81c-0.32,0.58-0.79,1.05-1.41,1.42s-1.35,0.55-2.18,0.55
		c-0.86,0-1.64-0.21-2.33-0.63s-1.25-1.02-1.65-1.78c-0.4-0.76-0.6-1.63-0.6-2.61C116.2,23.23,116.4,22.37,116.8,21.62z
		 M123.94,22.33c-0.29-0.54-0.69-0.95-1.19-1.24c-0.5-0.29-1.05-0.43-1.65-0.43s-1.15,0.14-1.64,0.42
		c-0.49,0.28-0.89,0.69-1.18,1.23c-0.29,0.54-0.44,1.17-0.44,1.9c0,0.74,0.15,1.38,0.44,1.93c0.29,0.55,0.69,0.96,1.18,1.25
		c0.49,0.29,1.04,0.43,1.64,0.43s1.15-0.14,1.65-0.43c0.5-0.29,0.9-0.7,1.19-1.25c0.29-0.55,0.44-1.18,0.44-1.91
		C124.38,23.51,124.23,22.87,123.94,22.33z"/>
	<path class="st0" d="M131.52,19.71c0.52-0.3,1.16-0.46,1.91-0.46v1.66h-0.42c-1.8,0-2.7,0.97-2.7,2.92v5.25h-1.6v-9.65h1.6V21
		C130.6,20.44,131,20.02,131.52,19.71z"/>
	<path class="st0" d="M135.28,21.62c0.4-0.75,0.95-1.32,1.65-1.73s1.48-0.62,2.33-0.62c0.85,0,1.58,0.18,2.2,0.55
		c0.62,0.36,1.09,0.82,1.39,1.38v-1.76h1.62v9.65h-1.62v-1.8c-0.32,0.56-0.79,1.03-1.42,1.4s-1.36,0.55-2.19,0.55
		c-0.86,0-1.63-0.21-2.33-0.63s-1.24-1.02-1.64-1.78c-0.4-0.76-0.6-1.63-0.6-2.61C134.68,23.23,134.88,22.37,135.28,21.62z
		 M142.42,22.33c-0.29-0.54-0.69-0.95-1.19-1.24c-0.5-0.29-1.05-0.43-1.65-0.43s-1.15,0.14-1.64,0.42
		c-0.49,0.28-0.89,0.69-1.18,1.23c-0.29,0.54-0.44,1.17-0.44,1.9c0,0.74,0.15,1.38,0.44,1.93c0.29,0.55,0.69,0.96,1.18,1.25
		c0.49,0.29,1.04,0.43,1.64,0.43s1.15-0.14,1.65-0.43c0.5-0.29,0.9-0.7,1.19-1.25c0.29-0.55,0.44-1.18,0.44-1.91
		C142.86,23.51,142.71,22.87,142.42,22.33z"/>
	<path class="st0" d="M148.62,28.86c-0.59-0.25-1.05-0.61-1.39-1.06c-0.34-0.45-0.53-0.97-0.56-1.56h1.66
		c0.05,0.48,0.27,0.88,0.68,1.18c0.41,0.31,0.94,0.46,1.59,0.46c0.61,0,1.09-0.13,1.44-0.41c0.35-0.27,0.53-0.61,0.53-1.02
		c0-0.42-0.19-0.74-0.56-0.94c-0.38-0.21-0.96-0.41-1.74-0.61c-0.72-0.19-1.3-0.38-1.75-0.57c-0.45-0.19-0.84-0.48-1.16-0.86
		c-0.32-0.38-0.48-0.88-0.48-1.51c0-0.49,0.15-0.95,0.44-1.36s0.71-0.74,1.25-0.98c0.54-0.24,1.16-0.36,1.85-0.36
		c1.07,0,1.93,0.27,2.59,0.81c0.66,0.54,1.01,1.28,1.06,2.22h-1.6c-0.04-0.5-0.24-0.91-0.61-1.22c-0.37-0.3-0.87-0.46-1.49-0.46
		c-0.58,0-1.03,0.12-1.37,0.37c-0.34,0.25-0.51,0.57-0.51,0.97c0,0.32,0.1,0.58,0.31,0.78c0.21,0.21,0.46,0.37,0.77,0.49
		s0.74,0.26,1.29,0.41c0.69,0.19,1.26,0.37,1.69,0.55c0.43,0.18,0.81,0.46,1.12,0.82c0.31,0.36,0.47,0.84,0.48,1.43
		c0,0.53-0.15,1-0.44,1.43c-0.29,0.42-0.71,0.75-1.24,1c-0.53,0.24-1.15,0.36-1.84,0.36C149.87,29.24,149.2,29.11,148.62,28.86z"/>
	<path class="st0" d="M158.34,20.75v5.69c0,0.47,0.1,0.8,0.3,1c0.2,0.19,0.55,0.29,1.04,0.29h1.18v1.36h-1.44
		c-0.89,0-1.56-0.21-2.01-0.62c-0.45-0.41-0.67-1.09-0.67-2.03v-5.69h-1.25v-1.32h1.25V17h1.6v2.43h2.52v1.32H158.34z"/>
	<path class="st0" d="M162.85,17.54c-0.21-0.21-0.32-0.47-0.32-0.77s0.11-0.56,0.32-0.78c0.21-0.21,0.47-0.32,0.78-0.32
		c0.29,0,0.54,0.11,0.75,0.32c0.21,0.21,0.31,0.47,0.31,0.78s-0.1,0.56-0.31,0.77c-0.21,0.21-0.46,0.32-0.75,0.32
		C163.32,17.86,163.06,17.75,162.85,17.54z M164.4,19.43v9.65h-1.6v-9.65H164.4z"/>
	<path class="st0" d="M173.26,28.86c-0.59-0.25-1.05-0.61-1.39-1.06c-0.34-0.45-0.53-0.97-0.56-1.56h1.66
		c0.05,0.48,0.27,0.88,0.68,1.18c0.41,0.31,0.94,0.46,1.59,0.46c0.61,0,1.09-0.13,1.44-0.41c0.35-0.27,0.53-0.61,0.53-1.02
		c0-0.42-0.19-0.74-0.56-0.94c-0.38-0.21-0.96-0.41-1.74-0.61c-0.72-0.19-1.3-0.38-1.75-0.57c-0.45-0.19-0.84-0.48-1.16-0.86
		c-0.32-0.38-0.48-0.88-0.48-1.51c0-0.49,0.15-0.95,0.44-1.36s0.71-0.74,1.25-0.98c0.54-0.24,1.16-0.36,1.85-0.36
		c1.07,0,1.93,0.27,2.59,0.81c0.66,0.54,1.01,1.28,1.06,2.22h-1.6c-0.04-0.5-0.24-0.91-0.61-1.22c-0.37-0.3-0.87-0.46-1.49-0.46
		c-0.58,0-1.03,0.12-1.37,0.37c-0.34,0.25-0.51,0.57-0.51,0.97c0,0.32,0.1,0.58,0.31,0.78c0.21,0.21,0.46,0.37,0.77,0.49
		s0.74,0.26,1.29,0.41c0.69,0.19,1.26,0.37,1.69,0.55c0.43,0.18,0.81,0.46,1.12,0.82c0.31,0.36,0.47,0.84,0.48,1.43
		c0,0.53-0.15,1-0.44,1.43c-0.29,0.42-0.71,0.75-1.24,1c-0.53,0.24-1.15,0.36-1.84,0.36C174.51,29.24,173.85,29.11,173.26,28.86z"/>
	<path class="st0" d="M189.59,19.43v9.65h-1.6v-1.43c-0.31,0.49-0.73,0.88-1.28,1.15c-0.55,0.28-1.15,0.41-1.81,0.41
		c-0.75,0-1.43-0.16-2.03-0.47c-0.6-0.31-1.07-0.78-1.42-1.4c-0.35-0.62-0.52-1.38-0.52-2.27v-5.65h1.59v5.44
		c0,0.95,0.24,1.68,0.72,2.19c0.48,0.51,1.14,0.77,1.97,0.77c0.86,0,1.53-0.26,2.03-0.79c0.49-0.53,0.74-1.3,0.74-2.31v-5.3H189.59z
		"/>
	<path class="st0" d="M195.11,19.71c0.52-0.3,1.16-0.46,1.91-0.46v1.66h-0.42c-1.8,0-2.7,0.97-2.7,2.92v5.25h-1.6v-9.65h1.6V21
		C194.19,20.44,194.59,20.02,195.11,19.71z"/>
</g>
</svg>
